<svg width="1430" height="1078" viewBox="0 0 1430 1078" fill="none"
    xmlns="http://www.w3.org/2000/svg">
    <path d="M28.1965 258.17C28.1965 258.17 62.8915 258.17 62.7565 258.17L66.2665 266H91.6465L47.0965 172.58C46.6915 171.635 45.8815 171.635 45.4765 172.58L0.791465 266H24.8215L28.1965 258.17ZM54.6565 239.81H36.0265L45.2065 218.48L54.6565 239.81ZM132.801 266H171.951C194.766 266 208.401 256.01 208.401 238.46C208.401 224.42 199.896 217.265 189.906 214.43C195.846 211.595 200.436 206.87 200.436 196.61C200.436 182.57 188.556 174.2 170.331 174.2H132.801V266ZM156.561 208.085V193.64H168.711C174.111 193.64 176.271 196.745 176.271 201.065C176.271 205.385 173.841 208.085 168.441 208.085H156.561ZM156.561 246.56V225.905H171.411C180.726 225.905 183.831 229.82 183.831 236.165C183.831 242.51 180.861 246.56 171.411 246.56H156.561ZM335.286 245.345L316.386 233.195C312.471 240.485 306.666 245.885 294.786 245.885C280.746 245.885 272.241 234.545 272.241 220.1C272.241 205.655 280.476 194.45 293.976 194.45C305.586 194.45 311.256 199.985 314.766 205.385L333.261 192.83C325.566 181.49 313.416 173.12 293.571 173.12C269.001 173.12 247.131 192.425 247.131 220.1C247.131 247.775 269.136 267.215 294.921 267.215C313.551 267.215 326.241 260.6 335.286 245.345ZM377.489 266H412.994C439.454 266 459.434 248.585 459.434 220.1C459.434 191.615 439.454 174.2 412.994 174.2H377.489V266ZM402.059 245.21V194.99H410.294C425.144 194.99 434.324 204.845 434.324 220.1C434.324 235.355 425.144 245.21 410.294 245.21H402.059ZM503.129 266H569.414V245.345H527.699V235.76H560.909V216.185H527.699V194.855H567.524V174.2H503.129V266ZM614.003 266H638.573V236.84H671.918V216.185H638.573V194.855H676.373V174.2H614.003V266ZM784.23 242.915C780.315 244.805 775.32 246.56 766.41 246.56C750.21 246.56 741.84 234.545 741.84 220.1C741.84 205.655 750.075 194.45 765.06 194.45C774.24 194.45 780.72 198.365 785.31 204.305L802.455 189.455C794.49 179.195 781.8 173.12 765.6 173.12C739.14 173.12 716.73 192.425 716.73 220.1C716.73 247.775 739.14 267.215 766.14 267.215C786.525 267.215 797.595 261.545 806.1 254.525V216.185H766.005V235.085H784.23V242.915ZM907.474 216.185H875.614V174.2H851.044V266H875.614V236.84H907.474V266H932.044V174.2H907.474V216.185ZM1019.52 267.35C1042.47 267.35 1059.34 255.2 1059.34 230.495V174.2H1034.77V230.225C1034.77 240.62 1029.91 246.56 1019.52 246.56C1009.12 246.56 1004.26 240.62 1004.26 230.225V174.2H979.693V230.495C979.693 255.2 996.568 267.35 1019.52 267.35ZM1157.42 174.2H1132.85V238.46C1132.85 244.13 1130.42 246.29 1126.51 246.29C1122.32 246.29 1120.3 243.455 1118.41 240.215L1099.91 252.095C1104.64 261.005 1113.82 267.35 1129.34 267.35C1147.03 267.35 1157.42 257.495 1157.42 240.215V174.2ZM1229.99 212.27V174.2H1205.42V266H1229.99V242.105C1232.55 239 1237.82 232.655 1237.68 232.655L1259.55 266H1288.58L1254.42 214.025L1284.93 174.2H1258.34L1229.99 212.27ZM1330.14 266H1393.72V245.345H1354.71V174.2H1330.14V266ZM12.4442 401H36.4742L38.6342 361.715L62.5292 388.445C62.9342 388.85 63.3392 388.85 63.7442 388.445L86.6942 361.85L88.8542 401H113.019L107.619 308.255C107.484 307.31 106.944 307.445 106.404 308.12L63.0692 357.53L19.0592 308.12C18.5192 307.445 17.9792 307.31 17.8442 308.255L12.4442 401ZM239.965 402.62C241.45 403.835 241.855 403.43 241.855 402.35V309.2H218.77V355.235L161.125 307.715C159.64 306.5 159.235 307.175 159.235 307.985V401H182.32V355.235L239.965 402.62ZM335.363 402.215C361.823 402.215 384.638 382.775 384.638 355.1C384.638 327.425 361.823 308.12 335.363 308.12C308.903 308.12 286.088 327.425 286.088 355.1C286.088 382.775 308.903 402.215 335.363 402.215ZM335.363 380.885C319.973 380.885 311.198 369.545 311.198 355.1C311.198 340.655 319.973 329.45 335.363 329.45C350.753 329.45 359.528 340.655 359.528 355.1C359.528 369.545 350.753 380.885 335.363 380.885ZM453.409 381.155H463.669C488.374 381.155 502.279 365.63 502.279 345.245C502.279 324.86 488.374 309.2 463.669 309.2H428.839V401H453.409V381.155ZM453.409 360.365V329.99H462.454C473.524 329.99 477.574 336.335 477.574 345.245C477.574 354.155 473.524 360.365 462.454 360.365H453.409ZM601.25 401.27C623.12 396.95 640.4 379.13 640.4 355.1C640.4 327.425 617.585 308.12 591.125 308.12C564.665 308.12 541.85 327.425 541.85 355.1C541.85 379.13 559.13 396.95 581 401.27V417.74H601.25V401.27ZM581 379.67C571.955 376.025 566.96 366.98 566.96 355.1C566.96 340.655 575.735 329.45 591.125 329.45C606.515 329.45 615.29 340.655 615.29 355.1C615.29 366.98 610.295 376.025 601.25 379.67V363.335H581V379.67ZM741.436 374.945C752.236 369.005 758.041 358.475 758.041 345.245C758.041 324.86 744.136 309.2 719.431 309.2H684.601V401H709.171V379.94H718.351L731.176 401H757.771L741.436 374.945ZM709.171 360.365V329.99H718.216C729.286 329.99 733.336 336.335 733.336 345.245C733.336 354.155 729.286 360.365 718.216 360.365H709.171ZM832.843 402.35C857.143 402.35 867.673 390.2 867.673 373.325C867.673 360.365 861.463 351.59 843.103 345.515L830.953 341.465C826.498 339.98 824.473 338.225 824.473 334.715C824.473 331.07 827.443 328.37 833.383 328.37C840.673 328.37 844.723 331.07 848.503 334.985L862.543 320.27C857.143 313.925 848.233 308.12 832.033 308.12C815.698 308.12 800.713 317.435 800.713 335.525C800.713 350.645 810.163 358.745 823.528 363.2L834.328 366.845C840.403 368.87 843.373 370.76 843.373 374.675C843.373 379.805 839.053 381.965 831.763 381.965C822.583 381.965 817.048 377.51 812.593 371.975L794.773 385.34C800.443 392.9 812.188 402.35 832.843 402.35ZM931.062 401H955.632V329.855H979.932V309.2H906.762V329.855H931.062V401ZM1062.56 402.35C1085.51 402.35 1102.39 390.2 1102.39 365.495V309.2H1077.82V365.225C1077.82 375.62 1072.96 381.56 1062.56 381.56C1052.17 381.56 1047.31 375.62 1047.31 365.225V309.2H1022.74V365.495C1022.74 390.2 1039.61 402.35 1062.56 402.35ZM1230.84 309.2H1205.87L1187.64 351.995L1168.88 309.2H1142.69L1185.89 401.945C1186.29 402.755 1187.1 402.755 1187.51 401.945L1230.84 309.2ZM1327.41 352.805L1350.36 402.08C1350.9 403.16 1351.58 403.16 1351.98 402.08L1389.92 309.2H1365.35L1349.01 352.265L1328.36 307.445C1328.09 306.77 1327.55 306.77 1327.28 307.445L1307.57 352.265L1290.42 309.2H1264.64L1303.11 402.08C1303.52 403.025 1304.33 403.025 1304.73 402.08L1327.41 352.805ZM579.849 486.725L548.124 536H573.639L592.539 504.95L611.034 536H638.439L606.849 485.645L633.444 444.2H607.929L594.159 467.42L580.524 444.2H553.119L579.849 486.725ZM707.925 504.275V536H732.495V503.6L767.055 444.2H741.27L720.615 481.595L699.825 444.2H672.825L707.925 504.275ZM802.188 536H877.113V515.345H839.853L880.488 445.55C881.163 444.47 880.893 444.2 880.083 444.2H808.668V464.855H842.418L801.783 534.65C801.108 535.73 801.378 536 802.188 536Z" fill="black" />
    <path d="M35.1965 709.17C35.1965 709.17 69.8915 709.17 69.7565 709.17L73.2665 717H98.6465L54.0965 623.58C53.6915 622.635 52.8815 622.635 52.4765 623.58L7.79146 717H31.8215L35.1965 709.17ZM61.6565 690.81H43.0265L52.2065 669.48L61.6565 690.81ZM139.801 717H178.951C201.766 717 215.401 707.01 215.401 689.46C215.401 675.42 206.896 668.265 196.906 665.43C202.846 662.595 207.436 657.87 207.436 647.61C207.436 633.57 195.556 625.2 177.331 625.2H139.801V717ZM163.561 659.085V644.64H175.711C181.111 644.64 183.271 647.745 183.271 652.065C183.271 656.385 180.841 659.085 175.441 659.085H163.561ZM163.561 697.56V676.905H178.411C187.726 676.905 190.831 680.82 190.831 687.165C190.831 693.51 187.861 697.56 178.411 697.56H163.561ZM342.286 696.345L323.386 684.195C319.471 691.485 313.666 696.885 301.786 696.885C287.746 696.885 279.241 685.545 279.241 671.1C279.241 656.655 287.476 645.45 300.976 645.45C312.586 645.45 318.256 650.985 321.766 656.385L340.261 643.83C332.566 632.49 320.416 624.12 300.571 624.12C276.001 624.12 254.131 643.425 254.131 671.1C254.131 698.775 276.136 718.215 301.921 718.215C320.551 718.215 333.241 711.6 342.286 696.345ZM384.489 717H419.994C446.454 717 466.434 699.585 466.434 671.1C466.434 642.615 446.454 625.2 419.994 625.2H384.489V717ZM409.059 696.21V645.99H417.294C432.144 645.99 441.324 655.845 441.324 671.1C441.324 686.355 432.144 696.21 417.294 696.21H409.059ZM510.129 717H576.414V696.345H534.699V686.76H567.909V667.185H534.699V645.855H574.524V625.2H510.129V717ZM621.003 717H645.573V687.84H678.918V667.185H645.573V645.855H683.373V625.2H621.003V717ZM791.23 693.915C787.315 695.805 782.32 697.56 773.41 697.56C757.21 697.56 748.84 685.545 748.84 671.1C748.84 656.655 757.075 645.45 772.06 645.45C781.24 645.45 787.72 649.365 792.31 655.305L809.455 640.455C801.49 630.195 788.8 624.12 772.6 624.12C746.14 624.12 723.73 643.425 723.73 671.1C723.73 698.775 746.14 718.215 773.14 718.215C793.525 718.215 804.595 712.545 813.1 705.525V667.185H773.005V686.085H791.23V693.915ZM914.474 667.185H882.614V625.2H858.044V717H882.614V687.84H914.474V717H939.044V625.2H914.474V667.185ZM1026.52 718.35C1049.47 718.35 1066.34 706.2 1066.34 681.495V625.2H1041.77V681.225C1041.77 691.62 1036.91 697.56 1026.52 697.56C1016.12 697.56 1011.26 691.62 1011.26 681.225V625.2H986.693V681.495C986.693 706.2 1003.57 718.35 1026.52 718.35ZM1164.42 625.2H1139.85V689.46C1139.85 695.13 1137.42 697.29 1133.51 697.29C1129.32 697.29 1127.3 694.455 1125.41 691.215L1106.91 703.095C1111.64 712.005 1120.82 718.35 1136.34 718.35C1154.03 718.35 1164.42 708.495 1164.42 691.215V625.2ZM1236.99 663.27V625.2H1212.42V717H1236.99V693.105C1239.55 690 1244.82 683.655 1244.68 683.655L1266.55 717H1295.58L1261.42 665.025L1291.93 625.2H1265.34L1236.99 663.27ZM1337.14 717H1400.72V696.345H1361.71V625.2H1337.14V717ZM19.4442 852H43.4742L45.6342 812.715L69.5292 839.445C69.9342 839.85 70.3392 839.85 70.7442 839.445L93.6942 812.85L95.8542 852H120.019L114.619 759.255C114.484 758.31 113.944 758.445 113.404 759.12L70.0692 808.53L26.0592 759.12C25.5192 758.445 24.9792 758.31 24.8442 759.255L19.4442 852ZM246.965 853.62C248.45 854.835 248.855 854.43 248.855 853.35V760.2H225.77V806.235L168.125 758.715C166.64 757.5 166.235 758.175 166.235 758.985V852H189.32V806.235L246.965 853.62ZM342.363 853.215C368.823 853.215 391.638 833.775 391.638 806.1C391.638 778.425 368.823 759.12 342.363 759.12C315.903 759.12 293.088 778.425 293.088 806.1C293.088 833.775 315.903 853.215 342.363 853.215ZM342.363 831.885C326.973 831.885 318.198 820.545 318.198 806.1C318.198 791.655 326.973 780.45 342.363 780.45C357.753 780.45 366.528 791.655 366.528 806.1C366.528 820.545 357.753 831.885 342.363 831.885ZM460.409 832.155H470.669C495.374 832.155 509.279 816.63 509.279 796.245C509.279 775.86 495.374 760.2 470.669 760.2H435.839V852H460.409V832.155ZM460.409 811.365V780.99H469.454C480.524 780.99 484.574 787.335 484.574 796.245C484.574 805.155 480.524 811.365 469.454 811.365H460.409ZM608.25 852.27C630.12 847.95 647.4 830.13 647.4 806.1C647.4 778.425 624.585 759.12 598.125 759.12C571.665 759.12 548.85 778.425 548.85 806.1C548.85 830.13 566.13 847.95 588 852.27V868.74H608.25V852.27ZM588 830.67C578.955 827.025 573.96 817.98 573.96 806.1C573.96 791.655 582.735 780.45 598.125 780.45C613.515 780.45 622.29 791.655 622.29 806.1C622.29 817.98 617.295 827.025 608.25 830.67V814.335H588V830.67ZM748.436 825.945C759.236 820.005 765.041 809.475 765.041 796.245C765.041 775.86 751.136 760.2 726.431 760.2H691.601V852H716.171V830.94H725.351L738.176 852H764.771L748.436 825.945ZM716.171 811.365V780.99H725.216C736.286 780.99 740.336 787.335 740.336 796.245C740.336 805.155 736.286 811.365 725.216 811.365H716.171ZM839.843 853.35C864.143 853.35 874.673 841.2 874.673 824.325C874.673 811.365 868.463 802.59 850.103 796.515L837.953 792.465C833.498 790.98 831.473 789.225 831.473 785.715C831.473 782.07 834.443 779.37 840.383 779.37C847.673 779.37 851.723 782.07 855.503 785.985L869.543 771.27C864.143 764.925 855.233 759.12 839.033 759.12C822.698 759.12 807.713 768.435 807.713 786.525C807.713 801.645 817.163 809.745 830.528 814.2L841.328 817.845C847.403 819.87 850.373 821.76 850.373 825.675C850.373 830.805 846.053 832.965 838.763 832.965C829.583 832.965 824.048 828.51 819.593 822.975L801.773 836.34C807.443 843.9 819.188 853.35 839.843 853.35ZM938.062 852H962.632V780.855H986.932V760.2H913.762V780.855H938.062V852ZM1069.56 853.35C1092.51 853.35 1109.39 841.2 1109.39 816.495V760.2H1084.82V816.225C1084.82 826.62 1079.96 832.56 1069.56 832.56C1059.17 832.56 1054.31 826.62 1054.31 816.225V760.2H1029.74V816.495C1029.74 841.2 1046.61 853.35 1069.56 853.35ZM1237.84 760.2H1212.87L1194.64 802.995L1175.88 760.2H1149.69L1192.89 852.945C1193.29 853.755 1194.1 853.755 1194.51 852.945L1237.84 760.2ZM1334.41 803.805L1357.36 853.08C1357.9 854.16 1358.58 854.16 1358.98 853.08L1396.92 760.2H1372.35L1356.01 803.265L1335.36 758.445C1335.09 757.77 1334.55 757.77 1334.28 758.445L1314.57 803.265L1297.42 760.2H1271.64L1310.11 853.08C1310.52 854.025 1311.33 854.025 1311.73 853.08L1334.41 803.805ZM586.849 937.725L555.124 987H580.639L599.539 955.95L618.034 987H645.439L613.849 936.645L640.444 895.2H614.929L601.159 918.42L587.524 895.2H560.119L586.849 937.725ZM714.925 955.275V987H739.495V954.6L774.055 895.2H748.27L727.615 932.595L706.825 895.2H679.825L714.925 955.275ZM809.188 987H884.113V966.345H846.853L887.488 896.55C888.163 895.47 887.893 895.2 887.083 895.2H815.668V915.855H849.418L808.783 985.65C808.108 986.73 808.378 987 809.188 987Z" fill="#FB6C11" />
    <path d="M261.796 105.62C263.281 106.835 263.686 106.43 263.686 105.35V12.2H240.601V58.235L182.956 10.715C181.471 9.49999 181.066 10.175 181.066 10.985V104H204.151V58.235L261.796 105.62ZM279.679 104H345.964V83.345H304.249V73.76H337.459V54.185H304.249V32.855H344.074V12.2H279.679V104ZM396.738 105.35C419.688 105.35 436.563 93.2 436.563 68.495V12.2H411.993V68.225C411.993 78.62 407.133 84.56 396.738 84.56C386.343 84.56 381.483 78.62 381.483 68.225V12.2H356.913V68.495C356.913 93.2 373.788 105.35 396.738 105.35ZM471.033 104H495.603V32.855H519.903V12.2H446.733V32.855H471.033V104ZM587.794 77.945C598.594 72.005 604.399 61.475 604.399 48.245C604.399 27.86 590.494 12.2 565.789 12.2H530.959V104H555.529V82.94H564.709L577.534 104H604.129L587.794 77.945ZM555.529 63.365V32.99H564.574C575.644 32.99 579.694 39.335 579.694 48.245C579.694 57.155 575.644 63.365 564.574 63.365H555.529ZM635.841 96.17C635.841 96.17 670.536 96.17 670.401 96.17L673.911 104H699.291L654.741 10.58C654.336 9.63499 653.526 9.63499 653.121 10.58L608.436 104H632.466L635.841 96.17ZM662.301 77.81H643.671L652.851 56.48L662.301 77.81ZM740.446 104H775.951C802.411 104 822.391 86.585 822.391 58.1C822.391 29.615 802.411 12.2 775.951 12.2H740.446V104ZM765.016 83.21V32.99H773.251C788.101 32.99 797.281 42.845 797.281 58.1C797.281 73.355 788.101 83.21 773.251 83.21H765.016ZM833.93 104H858.5V12.2H833.93V104ZM905.564 105.35C929.864 105.35 940.394 93.2 940.394 76.325C940.394 63.365 934.184 54.59 915.824 48.515L903.674 44.465C899.219 42.98 897.194 41.225 897.194 37.715C897.194 34.07 900.164 31.37 906.104 31.37C913.394 31.37 917.444 34.07 921.224 37.985L935.264 23.27C929.864 16.925 920.954 11.12 904.754 11.12C888.419 11.12 873.434 20.435 873.434 38.525C873.434 53.645 882.884 61.745 896.249 66.2L907.049 69.845C913.124 71.87 916.094 73.76 916.094 77.675C916.094 82.805 911.774 84.965 904.484 84.965C895.304 84.965 889.769 80.51 885.314 74.975L867.494 88.34C873.164 95.9 884.909 105.35 905.564 105.35ZM976.217 84.155H986.477C1011.18 84.155 1025.09 68.63 1025.09 48.245C1025.09 27.86 1011.18 12.2 986.477 12.2H951.647V104H976.217V84.155ZM976.217 63.365V32.99H985.262C996.332 32.99 1000.38 39.335 1000.38 48.245C1000.38 57.155 996.332 63.365 985.262 63.365H976.217ZM1036.42 104H1100V83.345H1060.99V12.2H1036.42V104ZM1132.6 96.17C1132.6 96.17 1167.29 96.17 1167.16 96.17L1170.67 104H1196.05L1151.5 10.58C1151.09 9.63499 1150.28 9.63499 1149.88 10.58L1105.19 104H1129.22L1132.6 96.17ZM1159.06 77.81H1140.43L1149.61 56.48L1159.06 77.81ZM1211.22 72.275V104H1235.79V71.6L1270.35 12.2H1244.57L1223.91 49.595L1203.12 12.2H1176.12L1211.22 72.275Z" fill="#FB6C11" />
</svg>