<?xml version="1.0" encoding="iso-8859-1"?>
<!-- Generator: Adobe Illustrator 19.0.0, SVG Export Plug-In . SVG Version: 6.00 Build 0)  -->
<svg version="1.1" id="Layer_1"
	xmlns="http://www.w3.org/2000/svg"
	xmlns:xlink="http://www.w3.org/1999/xlink" x="0px" y="0px" viewBox="0 0 512 512" style="enable-background:new 0 0 512 512;" xml:space="preserve">
	<g>
		<g>
			<path d="M256.001,208.401c-26.247,0-47.6,21.353-47.6,47.6c0,26.247,21.353,47.6,47.6,47.6c26.247,0,47.601-21.353,47.601-47.6
			C303.601,229.754,282.248,208.401,256.001,208.401z M256.001,285.055c-16.021,0-29.054-13.034-29.054-29.054
			s13.034-29.054,29.054-29.054s29.056,13.034,29.056,29.054S272.021,285.055,256.001,285.055z"/>
		</g>
	</g>
	<g>
		<g>
			<path d="M256.001,145.11c-26.388,0-51.969,9.452-72.032,26.614c-3.891,3.328-4.348,9.182-1.019,13.073
			c3.328,3.892,9.184,4.348,13.073,1.019c16.707-14.291,38.007-22.162,59.978-22.162c50.922,0,92.347,41.427,92.347,92.346
			c0,50.92-41.427,92.347-92.347,92.347s-92.346-41.427-92.346-92.347c0-15.297,3.819-30.451,11.046-43.825
			c2.434-4.505,0.754-10.131-3.75-12.566c-4.507-2.434-10.133-0.754-12.566,3.751c-8.683,16.073-13.273,34.275-13.273,52.64
			c0,61.146,49.746,110.892,110.891,110.892s110.891-49.745,110.891-110.891S317.147,145.11,256.001,145.11z"/>
		</g>
	</g>
	<g>
		<g>
			<path d="M256.001,0c-37.772,0-74.17,8.054-108.187,23.94c-4.641,2.167-6.645,7.685-4.479,12.325
			c2.167,4.64,7.688,6.645,12.326,4.478c31.541-14.729,65.3-22.198,100.34-22.198c130.932,0,237.455,106.522,237.455,237.455
			c0,44.714-12.492,88.269-36.128,125.958c-23.001,36.678-55.536,66.398-94.088,85.949c-4.567,2.317-6.392,7.897-4.076,12.464
			c1.634,3.223,4.895,5.08,8.277,5.08c1.411,0,2.842-0.323,4.188-1.005c41.553-21.072,76.621-53.106,101.409-92.636
			C498.529,351.165,512,304.202,512,256.001C512,114.841,397.159,0,256.001,0z"/>
		</g>
	</g>
	<g>
		<g>
			<path d="M338.407,488.815c-1.527-4.889-6.718-7.617-11.614-6.092c-22.832,7.12-46.649,10.732-70.792,10.732
			c-130.934,0-237.455-106.522-237.455-237.454c0-78.977,39.118-152.572,104.64-196.866c4.243-2.868,5.357-8.632,2.49-12.875
			c-2.868-4.242-8.633-5.357-12.875-2.489C42.167,91.519,0,170.857,0,256.001C0,397.159,114.841,512,256.001,512
			c26.018,0,51.694-3.893,76.315-11.572C337.204,498.903,339.932,493.704,338.407,488.815z"/>
		</g>
	</g>
	<g>
		<g>
			<path d="M458.534,172.962c-19.934-48.449-56.647-88.258-103.38-112.096c-2.234-1.139-4.83-1.325-7.201-0.518
			c-2.371,0.807-4.316,2.539-5.389,4.803l-31.822,67.055c-2.129,4.486-0.347,9.851,4.042,12.172
			c28.91,15.29,50.534,40.718,60.892,71.6c0.877,2.615,2.872,4.704,5.445,5.7c1.079,0.418,2.214,0.624,3.346,0.624
			c1.564,0,3.119-0.396,4.518-1.175l65.495-36.539C458.578,182.299,460.323,177.305,458.534,172.962z M389.331,199.697
			c-11.826-28.011-32.05-51.443-58.144-67.321l23.943-50.451c36.409,20.805,65.456,52.498,82.973,90.56L389.331,199.697z"/>
		</g>
	</g>
	<g>
		<g>
			<path d="M197.217,367.624c-28.91-15.291-50.535-40.719-60.892-71.601c-0.877-2.615-2.872-4.704-5.445-5.7
			c-2.573-0.995-5.455-0.794-7.863,0.55l-65.493,36.54c-4.101,2.288-5.845,7.282-4.056,11.625
			c19.934,48.448,56.647,88.257,103.379,112.096c1.318,0.671,2.762,1.013,4.214,1.013c1.006,0,2.016-0.163,2.987-0.495
			c2.371-0.807,4.316-2.539,5.389-4.802l31.823-67.055C203.388,375.311,201.606,369.945,197.217,367.624z M156.871,430.074
			c-36.411-20.807-65.456-52.498-82.973-90.56l48.77-27.211c11.825,28.011,32.05,51.442,58.145,67.322L156.871,430.074z"/>
		</g>
	</g>
	<g>
	</g>
	<g>
	</g>
	<g>
	</g>
	<g>
	</g>
	<g>
	</g>
	<g>
	</g>
	<g>
	</g>
	<g>
	</g>
	<g>
	</g>
	<g>
	</g>
	<g>
	</g>
	<g>
	</g>
	<g>
	</g>
	<g>
	</g>
	<g>
	</g>
</svg>
