<svg width="850" height="207" viewBox="0 0 850 207" fill="none"
    xmlns="http://www.w3.org/2000/svg">
    <!-- 💿 -->
    <path d="M207.9 61.14C185.93 83.17 186.05 123.86 208.17 145.76C188.48 117.84 188.4 89.22 207.9 61.14Z" fill="#F39200"/>
    <path d="M212.4 63.72C189.21 87.93 194.02 125.51 212.56 142.77C195.57 121.49 192.68 89.14 212.4 63.72Z" fill="#F39200"/>
    <path d="M200.12 54.48C175.27 80.11 174.79 125.67 200.42 152.49C177.43 119.78 177.45 86.75 200.12 54.48Z" fill="#F39200"/>
    <path d="M204.82 56.99C178.07 84.87 183.05 128.73 204.96 149.58C183.17 122.61 182.97 84.35 204.82 56.99Z" fill="#F39200"/>
    <path d="M188.25 44.75C157.35 77.98 159.55 132.03 188.18 161.7C160.9 123.46 160.77 83.64 188.25 44.75Z" fill="#F39200"/>
    <path d="M216.19 139.45C199.52 115.61 199.44 91.44 216.33 66.84C195.68 88.55 198.42 122.11 216.19 139.45Z" fill="#F39200"/>
    <path d="M196.35 50.97C168.19 80.86 170.71 129.24 196.15 155.31C171.87 120.92 171.88 85.54 196.35 50.97Z" fill="#F39200"/>
    <path d="M193.25 47C161.02 81.38 167.08 133.69 193.35 159.51C166.63 126.9 166.42 80.06 193.25 47Z" fill="#F39200"/>
    <path d="M307.59 61.14C327.08 89.22 327 117.84 307.32 145.76C329.45 123.87 329.57 83.17 307.59 61.14Z" fill="#F39200"/>
    <path d="M303.09 63.72C322.81 89.14 319.92 121.49 302.93 142.77C321.46 125.5 326.27 87.93 303.09 63.72Z" fill="#F39200"/>
    <path d="M315.37 54.48C338.04 86.75 338.06 119.78 315.07 152.49C340.7 125.67 340.22 80.11 315.37 54.48Z" fill="#F39200"/>
    <path d="M310.66 56.99C332.52 84.35 332.31 122.61 310.52 149.58C332.43 128.73 337.41 84.88 310.66 56.99Z" fill="#F39200"/>
    <path d="M327.24 44.75C354.72 83.65 354.59 123.46 327.31 161.7C355.95 132.03 358.15 77.98 327.24 44.75Z" fill="#F39200"/>
    <path d="M299.15 66.84C316.05 91.44 315.96 115.61 299.29 139.45C317.06 122.11 319.8 88.55 299.15 66.84Z" fill="#F39200"/>
    <path d="M319.13 50.97C343.6 85.54 343.61 120.92 319.33 155.31C344.77 129.24 347.29 80.86 319.13 50.97Z" fill="#F39200"/>
    <path d="M322.24 47C349.07 80.06 348.86 126.91 322.14 159.51C348.41 133.69 354.48 81.38 322.24 47Z" fill="#F39200"/>

    <path d="M257.58 64.95V64.98C245.8 65.55 235.87 70.14 228.37 79.47C222.29 87.03 219.59 95.74 220.03 105.45C220.78 122.1 234.15 140.43 257.58 141.72V141.75C281.22 140.61 294.69 122.18 295.45 105.45C295.89 95.74 293.19 87.03 287.11 79.47C279.54 70.06 269.51 65.46 257.58 64.95ZM267.56 109.82C265.34 113.43 261.96 115.29 257.58 115.37V115.35C253.35 115.18 250.08 113.34 247.92 109.82C245.3 105.56 245.27 101.03 247.91 96.77C250.09 93.26 253.35 91.4 257.59 91.24V91.22C261.99 91.29 265.35 93.17 267.58 96.77C270.22 101.03 270.19 105.56 267.57 109.82H267.56Z" fill="#F39200"/>
    <path d="M347.59 53.31C328.15 16.89 291.12 -0.0799932 257.9 6.83567e-06C257.85 6.83567e-06 257.79 6.83567e-06 257.74 6.83567e-06C257.69 6.83567e-06 257.63 6.83567e-06 257.58 6.83567e-06C224.36 -0.0799932 187.33 16.89 167.89 53.31C147.98 90.62 149.88 127.84 173.84 162.68C193.74 191.62 222.44 205.52 257.58 206.73V206.75C257.63 206.75 257.68 206.75 257.74 206.75C257.79 206.75 257.84 206.75 257.9 206.75V206.73C293.05 205.52 321.74 191.62 341.64 162.68C365.6 127.84 367.5 90.63 347.59 53.31ZM188.25 44.74C160.77 83.64 160.9 123.45 188.18 161.69C159.54 132.02 157.34 77.97 188.25 44.74ZM193.25 46.99C166.42 80.05 166.63 126.9 193.35 159.5C167.08 133.68 161.01 81.37 193.25 46.99ZM196.35 50.96C171.88 85.53 171.87 120.91 196.15 155.3C170.71 129.23 168.19 80.85 196.35 50.96ZM200.11 54.47C177.44 86.74 177.42 119.77 200.41 152.48C174.78 125.66 175.26 80.1 200.11 54.47ZM204.82 56.98C182.96 84.34 183.17 122.6 204.96 149.57C183.05 128.72 178.07 84.87 204.82 56.98ZM207.89 61.13C188.4 89.21 188.48 117.83 208.16 145.75C186.03 123.86 185.91 83.16 207.89 61.13ZM212.39 63.71C192.67 89.13 195.56 121.48 212.55 142.76C194.02 125.49 189.21 87.92 212.39 63.71ZM216.18 139.44C198.41 122.1 195.67 88.54 216.32 66.83C199.42 91.43 199.51 115.6 216.18 139.44ZM295.44 105.43C294.68 122.15 281.21 140.59 257.57 141.73V141.7C234.13 140.41 220.77 122.08 220.02 105.43C219.58 95.72 222.28 87.01 228.36 79.45C235.86 70.13 245.79 65.54 257.57 64.96V64.93C269.49 65.44 279.52 70.04 287.1 79.45C293.18 87.01 295.88 95.72 295.44 105.43ZM299.14 66.83C319.79 88.54 317.05 122.1 299.28 139.44C315.95 115.6 316.03 91.43 299.14 66.83ZM302.92 142.76C319.91 121.48 322.8 89.13 303.08 63.71C326.27 87.92 321.46 125.5 302.92 142.76ZM307.58 61.13C329.55 83.16 329.43 123.85 307.31 145.75C327 117.83 327.08 89.21 307.58 61.13ZM310.65 56.98C337.4 84.86 332.42 128.72 310.51 149.57C332.3 122.6 332.5 84.34 310.65 56.98ZM315.36 54.47C340.21 80.1 340.69 125.66 315.06 152.48C338.05 119.77 338.03 86.74 315.36 54.47ZM319.12 50.96C347.28 80.85 344.76 129.23 319.32 155.3C343.6 120.91 343.59 85.53 319.12 50.96ZM322.22 46.99C354.45 81.37 348.39 133.68 322.12 159.5C348.84 126.89 349.05 80.05 322.22 46.99ZM327.29 161.69C354.57 123.45 354.7 83.63 327.22 44.74C358.12 77.97 355.92 132.02 327.29 161.69Z" fill="black"/>
    <path d="M257.58 91.21V91.23C253.34 91.39 250.08 93.25 247.9 96.76C245.26 101.02 245.29 105.55 247.91 109.81C250.08 113.34 253.35 115.17 257.57 115.34V115.36C261.95 115.27 265.33 113.42 267.55 109.81C270.17 105.55 270.2 101.02 267.56 96.76C265.33 93.16 261.97 91.28 257.57 91.21H257.58Z" fill="black"/>

    <!-- H -->
    <path d="M85.88 32.52H123.27V172.23H85.88V127.85H37.39V172.23H0V32.52H37.39V96.42H85.88V32.52Z" fill="#F39200"/>
    <!-- O -->
    <!-- R -->
    <path d="M504.59 172.23H464.12L444.6 140.18H430.63V172.23H393.24V32.52H446.25C483.85 32.52 505.01 56.35 505.01 87.38C505.01 107.51 496.18 123.54 479.74 132.58L504.6 172.23H504.59ZM444.39 110.39C461.24 110.39 467.4 100.94 467.4 87.38C467.4 73.82 461.24 64.16 444.39 64.16H430.62V110.39H444.39Z" fill="#F39200"/>
    <!-- U -->
    <path d="M563.55 118.2V32.52H600.94V117.79C600.94 133.61 608.34 142.65 624.16 142.65C639.98 142.65 647.38 133.61 647.38 117.79V32.52H684.77V118.2C684.77 155.8 659.09 174.29 624.16 174.29C589.23 174.29 563.55 155.8 563.55 118.2Z" fill="#F39200"/>
    <!-- S -->
    <path d="M738.8 148.4L765.92 128.06C772.7 136.48 781.12 143.26 795.09 143.26C806.19 143.26 812.76 139.97 812.76 132.17C812.76 126.21 808.24 123.33 798.99 120.25L782.55 114.7C762.21 107.92 747.83 95.59 747.83 72.58C747.83 45.05 770.64 30.87 795.5 30.87C820.36 30.87 833.71 39.7 841.93 49.36L820.56 71.76C814.81 65.8 808.64 61.69 797.55 61.69C788.51 61.69 783.99 65.8 783.99 71.35C783.99 76.9 787.07 79.36 793.85 81.62L812.34 87.78C840.28 97.02 849.73 110.38 849.73 130.1C849.73 155.78 833.7 174.27 796.72 174.27C765.29 174.27 747.41 159.89 738.78 148.38L738.8 148.4Z" fill="#F39200"/>
</svg>
